# xmcd CD database file
#
# Track frame offsets:
#	150
#	17817
#	36492
#	54452
#	70090
#	83975
#	109287
#	126255
#	148587
#	165475
#	182767
#
# Disc length: 2729 seconds
#
# Revision: 0
# Processed by: cddbd v1.5PL3 Copyright (c) Steve Scherf et al.
# Submitted via: CDex 1.51
#
DISCID=9a0aa70b
DTITLE=Kids Alive - ''3 Colors Infinity''
DYEAR=2002
DGENRE=JPop
TTITLE0=ボクらの冒険
TTITLE1=雨
TTITLE2=Ready Go !
TTITLE3=ふんわり
TTITLE4=Go! Go! タートル !!
TTITLE5=Song for lover
TTITLE6=Top Speed
TTITLE7=星になったキミへ…
TTITLE8=サマーバケーション 〜ボクらは運命共同体＼(*^＿^*)／〜
TTITLE9=「スペシャルロケット」
TTITLE10=ありがとう
EXTD=YEAR: 2002
EXTT0=
EXTT1=
EXTT2=
EXTT3=
EXTT4=
EXTT5=
EXTT6=
EXTT7=
EXTT8=
EXTT9=
EXTT10=
PLAYORDER=
